<?xml version="1.0" encoding="UTF-8"?> <!-- Generator: Adobe Illustrator 25.2.1, SVG Export Plug-In . SVG Version: 6.00 Build 0) --> <svg xmlns="http://www.w3.org/2000/svg" xmlns:xlink="http://www.w3.org/1999/xlink" version="1.1" id="Layer_1" x="0px" y="0px" viewBox="0 0 1000 621.2" style="enable-background:new 0 0 1000 621.2;" xml:space="preserve"> <style type="text/css"> .st0{fill:#333333;} .st1{clip-path:url(#SVGID_2_);fill:#EE3D3C;} .st2{clip-path:url(#SVGID_4_);fill:#CBCBCA;} .st3{clip-path:url(#SVGID_6_);fill:#FBB116;} .st4{clip-path:url(#SVGID_8_);fill:#6DBD52;} .st5{clip-path:url(#SVGID_10_);fill:#CBCBCA;} .st6{clip-path:url(#SVGID_12_);fill:#CBCBCA;} .st7{fill:#444444;} .st8{fill:none;stroke:#333333;stroke-width:5;stroke-miterlimit:10;} .st9{clip-path:url(#SVGID_14_);fill:#EE3D3C;} .st10{clip-path:url(#SVGID_16_);fill:#CBCBCA;} .st11{clip-path:url(#SVGID_18_);fill:#FBB116;} .st12{clip-path:url(#SVGID_20_);fill:#6DBD52;} .st13{clip-path:url(#SVGID_22_);fill:#CBCBCA;} .st14{clip-path:url(#SVGID_24_);fill:#CBCBCA;} .st15{clip-path:url(#SVGID_26_);fill:#EE3D3C;} .st16{clip-path:url(#SVGID_28_);fill:#CBCBCA;} .st17{clip-path:url(#SVGID_30_);fill:#FBB116;} .st18{clip-path:url(#SVGID_32_);fill:#6DBD52;} .st19{clip-path:url(#SVGID_34_);fill:#CBCBCA;} .st20{clip-path:url(#SVGID_36_);fill:#CBCBCA;} .st21{clip-path:url(#SVGID_38_);fill:#323232;} .st22{clip-path:url(#SVGID_40_);fill:#CCCCCC;} .st23{clip-path:url(#SVGID_42_);fill:#323232;} .st24{clip-path:url(#SVGID_44_);fill:#323232;} .st25{clip-path:url(#SVGID_46_);fill:#CCCCCC;} .st26{clip-path:url(#SVGID_48_);fill:#CCCCCC;} .st27{clip-path:url(#SVGID_50_);fill:#FFFFFF;} .st28{clip-path:url(#SVGID_52_);fill:#999999;} .st29{clip-path:url(#SVGID_54_);fill:#FFFFFF;} .st30{clip-path:url(#SVGID_56_);fill:#FFFFFF;} .st31{clip-path:url(#SVGID_58_);fill:#999999;} .st32{clip-path:url(#SVGID_60_);fill:#999999;} .st33{fill:#FFFFFF;} .st34{fill:none;stroke:#FCFCFC;stroke-width:5;stroke-miterlimit:10;} .st35{clip-path:url(#SVGID_62_);fill:#EE3D3C;} .st36{clip-path:url(#SVGID_64_);fill:#CBCBCA;} .st37{clip-path:url(#SVGID_66_);fill:#FBB116;} .st38{clip-path:url(#SVGID_68_);fill:#6DBD52;} .st39{clip-path:url(#SVGID_70_);fill:#CBCBCA;} .st40{clip-path:url(#SVGID_72_);fill:#CBCBCA;} .st41{fill:none;stroke:#F9F9F9;stroke-width:5;stroke-miterlimit:10;} </style> <metadata><?xpacket begin="﻿" id="W5M0MpCehiHzreSzNTczkc9d"?> <?xpacket end="w"?> </metadata> <g> <g> <defs> <rect id="SVGID_1_" x="37" y="300.1" width="88.2" height="88.2"></rect> </defs> <clipPath id="SVGID_2_"> <use xlink:href="#SVGID_1_" style="overflow:visible;"></use> </clipPath> <rect x="-36.5" y="226.6" class="st1" width="235.2" height="235.2"></rect> </g> <g> <defs> <rect id="SVGID_3_" x="37" y="167.8" width="88.2" height="88.2"></rect> </defs> <clipPath id="SVGID_4_"> <use xlink:href="#SVGID_3_" style="overflow:visible;"></use> </clipPath> <rect x="-36.5" y="94.3" class="st2" width="235.2" height="235.2"></rect> </g> <g> <defs> <rect id="SVGID_5_" x="169.3" y="167.8" width="88.2" height="220.5"></rect> </defs> <clipPath id="SVGID_6_"> <use xlink:href="#SVGID_5_" style="overflow:visible;"></use> </clipPath> <rect x="95.8" y="94.3" class="st3" width="235.2" height="367.4"></rect> </g> <g> <defs> <rect id="SVGID_7_" x="301.6" y="35.5" width="88.2" height="352.7"></rect> </defs> <clipPath id="SVGID_8_"> <use xlink:href="#SVGID_7_" style="overflow:visible;"></use> </clipPath> <rect x="228.1" y="-38" class="st4" width="235.2" height="499.7"></rect> </g> <g> <defs> <rect id="SVGID_9_" x="37" y="35.5" width="88.2" height="88.2"></rect> </defs> <clipPath id="SVGID_10_"> <use xlink:href="#SVGID_9_" style="overflow:visible;"></use> </clipPath> <rect x="-36.5" y="-38" class="st5" width="235.2" height="235.2"></rect> </g> <g> <defs> <rect id="SVGID_11_" x="169.3" y="35.5" width="88.2" height="88.2"></rect> </defs> <clipPath id="SVGID_12_"> <use xlink:href="#SVGID_11_" style="overflow:visible;"></use> </clipPath> <rect x="95.8" y="-38" class="st6" width="235.2" height="235.2"></rect> </g> <g> <path class="st7" d="M479.4,349.7v-77.2h-16.1V256H497v6c4.9-4,10.7-6,17.6-6h22.7v17.6h-24.9c-4.7,0-8.2,1.5-10.6,4.5 c-2.4,3-3.6,6.1-3.7,9.1v62.4h24v16.5h-58.9v-16.5H479.4z"></path> <path class="st7" d="M563.3,272.5V256h51.1v93.7h32.6v16.5h-51.4v-93.7H563.3z M615.6,211.9v19.8h-20.9v-19.8H615.6z"></path> <path class="st7" d="M664.3,256h20.3l25.8,95l25.1-95h19.6l-31.7,110.2h-27.1L664.3,256z"></path> <path class="st7" d="M784.5,358c-6-5.5-9-14.5-9-27v-39.7c0-12.6,2.7-21.7,8.2-27.1c5.4-5.4,14.5-8.2,27.1-8.2h10.4 c10.4,0,18.3,2.9,23.7,8.7c5.4,5.8,8,14.3,8,25.5v28.7h-58.6v16.5c0,4.6,1.4,8.1,4.2,10.6c2.8,2.5,6.9,3.7,12.3,3.7h35.1v16.5 h-32.8C800,366.2,790.5,363.5,784.5,358z M834.5,285.8c0-3.8-1.3-7-3.7-9.5c-2.5-2.5-5.7-3.8-9.5-3.8h-12.8c-5.3,0-9,1.2-11.1,3.6 c-2.1,2.4-3.2,6-3.2,10.7v15.4h40.3V285.8z"></path> <path class="st7" d="M897.3,349.7v-77.2h-16.1V256H915v6c4.9-4,10.7-6,17.6-6h22.7v17.6h-24.9c-4.7,0-8.2,1.5-10.6,4.5 c-2.4,3-3.6,6.1-3.7,9.1v62.4h24v16.5h-58.9v-16.5H897.3z"></path> </g> <g> <path class="st7" d="M455.9,88.8V72.3H507V166h32.6v16.5h-51.4V88.8H455.9z M508.2,28.2V48h-20.9V28.2H508.2z"></path> <path class="st7" d="M608.7,72.3v5.3c4.6-3.5,10.4-5.3,17.6-5.3h10.1c11.9,0,20.8,2.8,26.6,8.4c5.8,5.6,8.7,14.5,8.7,26.9v75H653 v-79.4c0-4.4-1.3-7.9-3.9-10.5c-2.6-2.6-6.1-3.9-10.5-3.9h-14.5c-4.9,0-8.5,1.3-10.8,3.9c-2.4,2.6-3.5,5.3-3.5,8.3v81.6H591V72.3 H608.7z"></path> <path class="st7" d="M766.9,46.6c-1.4,1.3-2.1,2.8-2.1,4.7v20.9h35.5v16.5h-35.5V166h26.7v16.5h-64.2V166H746V88.8h-18.7V72.3H746 V52.4c0-7.5,2.1-13.4,6.4-17.7c4.3-4.3,9.8-6.5,16.5-6.5h33.5v16.5h-30C770.1,44.7,768.3,45.3,766.9,46.6z"></path> <path class="st7" d="M930.4,174.1c-6.1,5.6-15.5,8.4-28.3,8.4h-7.3c-12.8,0-22.2-2.8-28.3-8.4c-6.1-5.6-9.2-14.6-9.2-26.9v-39.7 c0-12.3,3.1-21.3,9.2-26.9c6.1-5.6,15.5-8.4,28.3-8.4h7.3c12.8,0,22.2,2.8,28.3,8.4c6.1,5.6,9.2,14.5,9.2,26.9v39.7 C939.6,159.6,936.5,168.5,930.4,174.1z M916.7,92.6c-2.8-2.5-6.9-3.7-12.3-3.7h-11.7c-5.4,0-9.6,1.2-12.3,3.7 c-2.8,2.5-4.2,6-4.2,10.6v48.5c0,4.6,1.4,8.1,4.2,10.6c2.8,2.5,6.9,3.7,12.3,3.7h11.7c5.4,0,9.6-1.2,12.3-3.7 c2.8-2.5,4.2-6,4.2-10.6v-48.5C920.9,98.6,919.5,95.1,916.7,92.6z"></path> </g> <line class="st8" x1="37" y1="469.1" x2="963" y2="469.1"></line> </g> <g> <path class="st0" d="M37.7,559.3H43v-30.8h-5.7v-3.9h15.9v3.9h-5.6v30.8h5.4v3.9H37.7V559.3z"></path> <path class="st0" d="M76.4,524.6h7.1l21.2,34h0.9v-34h4.2v38.6h-6.9l-21.6-34.5h-0.9l0.3,34.5h-4.2V524.6z"></path> <path class="st0" d="M140.7,528.7h-12v-4.1h28.6v4.1h-12v34.6h-4.6V528.7z"></path> <path class="st0" d="M176.3,524.6H202v4.1h-21.1v12.4h17.9v4h-17.9v14.1h21.2v4.1h-25.8V524.6z"></path> <path class="st0" d="M222.8,524.6h4.7v34.7h18.1v3.9h-22.8V524.6z"></path> <path class="st0" d="M264.4,524.6h4.7v34.7h18.1v3.9h-22.8V524.6z"></path> <path class="st0" d="M305.8,559.3h5.4v-30.8h-5.7v-3.9h15.9v3.9h-5.6v30.8h5.4v3.9h-15.4V559.3z"></path> <path class="st0" d="M374.8,544.4v19.1h-3.3l-0.5-5.5c-1.1,2.1-2.7,3.7-4.6,4.7c-1.9,1-4.3,1.5-7.2,1.5c-5.9,0-10.3-1.6-13.1-4.9 c-2.8-3.3-4.2-8.3-4.2-15.2c0-7,1.4-12.1,4.3-15.5c2.8-3.3,7.2-5,13.1-5c3.3,0,6.1,0.5,8.4,1.4c2.3,0.9,4,2.2,5.2,4 c1.2,1.8,1.7,3.9,1.7,6.4H370c0-2.5-0.9-4.4-2.8-5.7c-1.8-1.3-4.5-2-7.9-2c-4.3,0-7.4,1.3-9.5,4c-2.1,2.7-3.1,6.8-3.1,12.3 c0,3.7,0.4,6.7,1.1,9c0.7,2.3,2,4.1,3.8,5.3s4.3,1.8,7.5,1.8c3.5,0,6.2-0.8,8.1-2.5c1.9-1.7,2.8-4,2.8-7v-2.1h-11.7v-4.3H374.8z"></path> <path class="st0" d="M397.3,524.6H423v4.1h-21.1v12.4h17.9v4h-17.9v14.1h21.2v4.1h-25.8V524.6z"></path> <path class="st0" d="M443.8,524.6h7.1l21.2,34h0.9v-34h4.2v38.6h-6.9l-21.6-34.5h-0.9l0.3,34.5h-4.2V524.6z"></path> <path class="st0" d="M508.1,528.7h-12v-4.1h28.6v4.1h-12v34.6h-4.6V528.7z"></path> <path class="st0" d="M579.7,524.6h5.4l14.8,38.6h-4.7l-3.7-9.7h-18l-3.6,9.7h-4.7L579.7,524.6z M590.2,549.8l-7.8-21.2l-7.6,21.2 H590.2z"></path> <path class="st0" d="M618.6,524.6h7.1l21.2,34h0.9v-34h4.2v38.6h-6.9l-21.6-34.5h-0.9l0.3,34.5h-4.2V524.6z"></path> <path class="st0" d="M685.2,524.6h5.4l14.8,38.6h-4.7l-3.7-9.7h-18l-3.6,9.7h-4.7L685.2,524.6z M695.6,549.8l-7.8-21.2l-7.6,21.2 H695.6z"></path> <path class="st0" d="M724,524.6h4.7v34.7h18.1v3.9H724V524.6z"></path> <path class="st0" d="M772.7,547.3l-13.1-22.7h4.9l10.2,17.9h0.8l10.3-17.9h4.9l-13.2,22.7v16h-4.7V547.3z"></path> <path class="st0" d="M815.5,528.7h-12v-4.1h28.6v4.1h-12v34.6h-4.6V528.7z"></path> <path class="st0" d="M850.8,559.3h5.4v-30.8h-5.7v-3.9h15.9v3.9h-5.6v30.8h5.4v3.9h-15.4V559.3z"></path> <path class="st0" d="M891.2,559.4c-2.8-3.3-4.2-8.3-4.2-15.2c0-6.9,1.5-12.1,4.4-15.4c2.9-3.4,7.4-5,13.5-5c3.1,0,5.8,0.5,8,1.4 c2.2,0.9,3.9,2.2,5,4c1.1,1.8,1.7,3.9,1.6,6.4H915c0-2.5-0.9-4.4-2.6-5.7c-1.8-1.3-4.2-2-7.5-2c-3.2,0-5.7,0.5-7.6,1.6 s-3.3,2.8-4.2,5.2s-1.3,5.5-1.3,9.5c0,3.9,0.4,7.1,1.2,9.4s2.1,4.1,3.9,5.1s4.2,1.6,7.1,1.6c3.5,0,6.2-0.7,8.1-2 c1.9-1.3,2.8-3.3,2.8-5.8h4.5c0,2.5-0.5,4.6-1.7,6.4s-2.9,3.1-5.2,4c-2.3,0.9-5.1,1.4-8.4,1.4C898.4,564.3,894,562.7,891.2,559.4z"></path> <path class="st0" d="M944,563c-2-0.7-3.5-1.8-4.4-3.4c-0.9-1.5-1.4-3.6-1.4-6.2h4.4c0,1.7,0.3,3,0.9,3.9c0.6,0.9,1.6,1.6,3,2 s3.3,0.6,5.7,0.6c2.2,0,4-0.2,5.3-0.7c1.3-0.5,2.2-1.2,2.8-2.3s0.9-2.5,0.9-4.2c0-1.6-0.3-2.9-1-3.9s-1.8-1.8-3.5-2.4 s-3.9-1.1-6.9-1.6c-4-0.6-7-1.8-8.8-3.6s-2.8-4.3-2.8-7.5c0-3.5,1.1-6,3.4-7.7c2.3-1.7,5.8-2.5,10.6-2.5c3,0,5.5,0.3,7.3,1 c1.8,0.7,3.2,1.7,4,3.1c0.8,1.4,1.3,3.3,1.3,5.7h-4.3c0-1.5-0.3-2.6-0.8-3.5c-0.5-0.8-1.4-1.4-2.7-1.8c-1.2-0.3-3-0.5-5.2-0.5 c-2.2,0-3.9,0.2-5.2,0.6s-2.2,1-2.8,1.9c-0.6,0.9-0.9,2-0.9,3.5c0,1.5,0.3,2.7,0.9,3.6c0.6,0.9,1.7,1.6,3.3,2.2s3.8,1.1,6.8,1.6 c4.2,0.6,7.2,1.9,9.1,3.7c1.9,1.8,2.9,4.4,2.9,7.6c0,3.9-1.1,6.8-3.4,8.7s-5.7,2.8-10.5,2.8C948.7,564.1,946,563.7,944,563z"></path> </g> </svg> 