<?xml version="1.0" encoding="UTF-8"?> <!-- Generator: Adobe Illustrator 25.4.1, SVG Export Plug-In . SVG Version: 6.00 Build 0) --> <svg xmlns="http://www.w3.org/2000/svg" xmlns:xlink="http://www.w3.org/1999/xlink" version="1.1" id="Layer_1" x="0px" y="0px" viewBox="0 0 350 140" style="enable-background:new 0 0 350 140;" xml:space="preserve"> <style type="text/css"> .st0{fill:#EE3D3C;} .st1{fill:#CBCBCA;} .st2{fill:#FBB116;} .st3{fill:#6DBD52;} .st4{fill:#444444;} </style> <rect x="4.4" y="103.6" class="st0" width="32.8" height="32.8"></rect> <rect x="4.4" y="54.3" class="st1" width="32.8" height="32.8"></rect> <rect x="53.7" y="54.3" class="st2" width="32.8" height="82.1"></rect> <rect x="102.9" y="5.1" class="st3" width="32.8" height="131.3"></rect> <rect x="4.4" y="5.1" class="st1" width="32.8" height="32.8"></rect> <rect x="53.7" y="5.1" class="st1" width="32.8" height="32.8"></rect> <g> <path class="st4" d="M169.1,122.1V93.3h-6v-6.1h12.6v2.2c1.8-1.5,4-2.2,6.6-2.2h8.4v6.6h-9.2c-1.7,0-3,0.6-4,1.7 c-0.9,1.1-1.4,2.3-1.4,3.4V122h8.9v6.1h-21.9V122L169.1,122.1L169.1,122.1z"></path> <path class="st4" d="M200.4,93.3v-6.1h19V122h12.1v6.1h-19.1V93.3H200.4z M219.8,70.8v7.4h-7.8v-7.4H219.8z"></path> <path class="st4" d="M238,87.1h7.6l9.6,35.4l9.4-35.4h7.3l-11.8,41H250L238,87.1z"></path> <path class="st4" d="M282.7,125.1c-2.2-2-3.4-5.4-3.4-10.1v-14.8c0-4.7,1-8.1,3-10.1c2-2,5.4-3,10.1-3h3.8c3.8,0,6.8,1.1,8.8,3.2 c2,2.2,3,5.3,3,9.5v10.7h-21.8v6.1c0,1.7,0.5,3,1.6,4c1.1,0.9,2.5,1.4,4.6,1.4h13.1v6.1h-12.2C288.5,128.2,285,127.2,282.7,125.1z M301.4,98.2c0-1.4-0.5-2.6-1.4-3.5c-0.9-0.9-2.1-1.4-3.5-1.4h-4.8c-2,0-3.4,0.4-4.2,1.4c-0.8,0.9-1.2,2.2-1.2,4v5.7h15L301.4,98.2 L301.4,98.2z"></path> <path class="st4" d="M324.7,122.1V93.3h-6v-6.1h12.6v2.2c1.8-1.5,4-2.2,6.6-2.2h8.4v6.6h-9.2c-1.7,0-3,0.6-4,1.7 c-0.9,1.1-1.4,2.3-1.4,3.4V122h8.9v6.1h-21.9V122L324.7,122.1L324.7,122.1z"></path> </g> <g> <path class="st4" d="M160.4,24.9v-6.1h19v34.9h12.2v6.1h-19.1V24.9H160.4z M179.9,2.3v7.4h-7.8V2.3H179.9z"></path> <path class="st4" d="M217.3,18.8v2c1.7-1.3,3.8-2,6.6-2h3.8c4.4,0,7.8,1.1,9.9,3.1s3.2,5.4,3.2,10v27.9h-6.9V30.2 c0-1.6-0.5-2.9-1.4-3.9c-1-1-2.3-1.4-3.9-1.4h-5.4c-1.8,0-3.2,0.5-4,1.4c-0.9,1-1.3,2-1.3,3.1v30.4h-7V18.8H217.3z"></path> <path class="st4" d="M276.2,9.1c-0.5,0.5-0.8,1.1-0.8,1.7v7.8h13.3v6.1h-13.2v28.8h9.9v6.1h-23.9v-6.1h6.9V24.9h-6.9v-6.1h6.9v-7.4 c0-2.8,0.8-5,2.4-6.6c1.6-1.6,3.7-2.4,6.1-2.4h12.5v6.1h-11.2C277.4,8.5,276.7,8.7,276.2,9.1z"></path> <path class="st4" d="M337.1,56.7c-2.3,2.1-5.8,3.1-10.5,3.1h-2.7c-4.8,0-8.3-1.1-10.5-3.1c-2.3-2.1-3.4-5.5-3.4-10V31.9 c0-4.6,1.2-7.9,3.4-10c2.3-2.1,5.8-3.1,10.5-3.1h2.7c4.8,0,8.3,1.1,10.5,3.1c2.3,2.1,3.4,5.4,3.4,10v14.8 C340.5,51.3,339.3,54.6,337.1,56.7z M332,26.3c-1.1-0.9-2.5-1.4-4.6-1.4h-4.3c-2,0-3.6,0.4-4.6,1.4c-1.1,0.9-1.6,2.2-1.6,4v18.1 c0,1.7,0.5,3,1.6,4c1.1,0.9,2.5,1.4,4.6,1.4h4.3c2,0,3.6-0.4,4.6-1.4c1.1-0.9,1.6-2.2,1.6-4V30.2C333.6,28.6,333,27.3,332,26.3z"></path> </g> </svg> 